HIERARCHY
ROOT joint_Root
{
	OFFSET 0.0 0.0 0.0
	CHANNELS 6 Xposition Yposition Zposition Zrotation Xrotation Yrotation 
	JOINT Hips
	{
		OFFSET -17.1583 93.1646 452.98
		CHANNELS 6 Xposition Yposition Zposition Zrotation Xrotation Yrotation 
		JOINT Spine
		{
			OFFSET 15.7357 0.0 0.0
			CHANNELS 6 Xposition Yposition Zposition Zrotation Xrotation Yrotation 
			JOINT Chest
			{
				OFFSET 8.98455 -0.406207 0.0
				CHANNELS 6 Xposition Yposition Zposition Zrotation Xrotation Yrotation 
				JOINT Neck
				{
					OFFSET 16.3773 0.0 0.0
					CHANNELS 6 Xposition Yposition Zposition Zrotation Xrotation Yrotation 
					JOINT Head
					{
						OFFSET 6.45672 0.0 0.0
						CHANNELS 6 Xposition Yposition Zposition Zrotation Xrotation Yrotation 
						End Site
						{
							OFFSET 0.0 0.0 0.0
						}
					}
				}
				JOINT Shoulder_L
				{
					OFFSET 12.9942 -0.242716 4.98039
					CHANNELS 6 Xposition Yposition Zposition Zrotation Xrotation Yrotation 
					JOINT UpperArm_L
					{
						OFFSET 5.34809 0.0 0.0
						CHANNELS 6 Xposition Yposition Zposition Zrotation Xrotation Yrotation 
						JOINT LowerArm_L
						{
							OFFSET 24.3286 1.87007e-05 0.0
							CHANNELS 6 Xposition Yposition Zposition Zrotation Xrotation Yrotation 
							JOINT Hand_L
							{
								OFFSET 22.2916 0.0 0.0
								CHANNELS 6 Xposition Yposition Zposition Zrotation Xrotation Yrotation 
								End Site
								{
									OFFSET 0.0 0.0 0.0
								}
							}
						}
					}
				}
				JOINT Shoulder_R
				{
					OFFSET 12.9945 -0.242716 -4.98039
					CHANNELS 6 Xposition Yposition Zposition Zrotation Xrotation Yrotation 
					JOINT UpperArm_R
					{
						OFFSET -5.34813 0.0 0.0
						CHANNELS 6 Xposition Yposition Zposition Zrotation Xrotation Yrotation 
						JOINT LowerArm_R
						{
							OFFSET -24.3289 0.000322201 0.0
							CHANNELS 6 Xposition Yposition Zposition Zrotation Xrotation Yrotation 
							JOINT Hand_R
							{
								OFFSET -22.2915 -0.000108084 0.0
								CHANNELS 6 Xposition Yposition Zposition Zrotation Xrotation Yrotation 
								End Site
								{
									OFFSET 0.0 0.0 0.0
								}
							}
						}
					}
				}
			}
		}
		JOINT UpperLeg_L
		{
			OFFSET -2.19248 -6.46944 0.0
			CHANNELS 6 Xposition Yposition Zposition Zrotation Xrotation Yrotation 
			JOINT LowerLeg_L
			{
				OFFSET 39.0811 0.0 -1.23785e-05
				CHANNELS 6 Xposition Yposition Zposition Zrotation Xrotation Yrotation 
				JOINT Foot_L
				{
					OFFSET 40.9854 0.0 -1.26872e-05
					CHANNELS 6 Xposition Yposition Zposition Zrotation Xrotation Yrotation 
					JOINT Toes_L
					{
						OFFSET 11.7543 0.0 0.0
						CHANNELS 6 Xposition Yposition Zposition Zrotation Xrotation Yrotation 
						End Site
						{
							OFFSET 0.0 0.0 0.0
						}
					}
				}
			}
		}
		JOINT UpperLeg_R
		{
			OFFSET -2.19251 6.46944 0.0
			CHANNELS 6 Xposition Yposition Zposition Zrotation Xrotation Yrotation 
			JOINT LowerLeg_R
			{
				OFFSET -39.0811 -0.00228153 -0.0401928
				CHANNELS 6 Xposition Yposition Zposition Zrotation Xrotation Yrotation 
				JOINT Foot_R
				{
					OFFSET -40.9854 0.0 0.0
					CHANNELS 6 Xposition Yposition Zposition Zrotation Xrotation Yrotation 
					JOINT Toes_R
					{
						OFFSET -11.7543 0.0 0.0
						CHANNELS 6 Xposition Yposition Zposition Zrotation Xrotation Yrotation 
						End Site
						{
							OFFSET 0.0 0.0 0.0
						}
					}
				}
			}
		}
	}
}
MOTION
Frames:	9
Frame Time:	0.0333333
0.000000 0.000000 0.000000 0.000000 0.000000 -0.000000 -3.335630 93.295000 -1.155930 86.505800 0.086616 1.170680 15.735700 0.000005 -0.000001 77.450800 87.640000 -81.614700 8.984550 -0.406207 -0.000000 -3.167960 -0.628276 -8.346810 16.377300 -0.000001 -0.000001 0.976627 1.742420 -8.288370 6.456720 -0.000001 -0.000000 -13.533100 8.385130 -16.297300 12.994200 -0.242716 4.980390 -93.120700 8.970940 -70.728600 5.348090 -0.000007 -0.000001 -61.343700 0.742966 1.636300 24.328600 0.000019 0.000005 15.071300 28.872800 -29.147300 22.291600 -0.000001 0.000005 2.649920 4.935020 8.671900 12.994500 -0.242716 -4.980390 93.709800 -6.824140 -61.379700 -5.348130 -0.000001 -0.000004 -62.036500 -61.811900 -109.246000 -24.328900 0.000322 -0.000009 -0.658868 -20.346900 -1.891330 -22.291500 -0.000108 -0.000004 34.884200 5.428230 -3.878770 -2.192480 -6.469440 -0.000000 -169.264000 -11.524900 -0.588798 39.081100 -0.000007 -0.000012 -0.018113 0.071546 14.206500 40.985400 -0.000006 -0.000013 -2.206820 20.022000 -67.872200 11.754300 -0.000000 0.000003 -0.001687 0.192354 -8.773180 -2.192510 6.469440 -0.000001 179.631000 5.927280 -178.952000 -39.081100 -0.002282 -0.040193 0.000213 0.017351 10.210800 -40.985400 0.000008 0.000006 -6.195490 11.243000 -64.716400 -11.754300 -0.000006 -0.000006 -0.008508 0.259794 -6.021550
0.000000 0.000000 0.000000 0.000000 0.000000 -0.000000 -3.283000 93.291400 -1.155470 86.533200 0.118826 1.264510 15.735700 0.000005 -0.000001 77.268500 87.623000 -81.456800 8.984550 -0.406207 -0.000000 -3.138850 -0.649148 -8.395840 16.377300 -0.000001 -0.000001 0.960269 1.595710 -8.295910 6.456720 -0.000001 -0.000000 -13.616300 8.108030 -16.263200 12.994200 -0.242716 4.980390 -93.147000 9.014700 -70.664500 5.348090 -0.000007 -0.000001 -61.051000 0.693682 1.752000 24.328600 0.000019 0.000005 14.799100 29.242900 -28.405100 22.291600 -0.000001 0.000005 2.688670 4.931620 8.741160 12.994500 -0.242716 -4.980390 93.670800 -6.754640 -61.389200 -5.348130 -0.000001 -0.000004 -61.838200 -61.838900 -108.884000 -24.328900 0.000322 -0.000009 -0.691690 -20.448400 -1.976280 -22.291500 -0.000108 -0.000004 34.669400 5.426740 -3.827760 -2.192480 -6.469440 -0.000000 -169.319000 -11.370600 -0.520476 39.081100 -0.000007 -0.000012 -0.017725 0.069818 14.244600 40.985400 -0.000006 -0.000013 -2.163150 19.971500 -67.875000 11.754300 -0.000000 0.000003 -0.001322 0.187502 -8.970420 -2.192510 6.469440 -0.000001 179.554000 5.954930 -178.881000 -39.081100 -0.002282 -0.040193 0.000056 0.018105 10.276400 -40.985400 0.000008 0.000006 -6.279480 11.269600 -64.751400 -11.754300 -0.000006 -0.000006 -0.008210 0.257407 -6.119080
0.000000 0.000000 0.000000 0.000000 0.000000 -0.000000 -3.234140 93.280300 -1.150560 86.535200 0.112313 1.345280 15.735700 0.000005 -0.000001 77.177000 87.617100 -81.369600 8.984550 -0.406207 -0.000000 -3.129430 -0.659107 -8.404530 16.377300 -0.000001 -0.000001 0.904747 1.367900 -8.207240 6.456720 -0.000001 -0.000000 -13.517800 7.740440 -16.319900 12.994200 -0.242716 4.980390 -93.171600 9.095760 -70.683800 5.348090 -0.000007 -0.000001 -60.777600 0.632586 1.955630 24.328600 0.000019 0.000005 14.436700 29.452200 -27.635300 22.291600 -0.000001 0.000005 2.635290 4.923990 8.896150 12.994500 -0.242716 -4.980390 93.638500 -6.696550 -61.395900 -5.348130 -0.000001 -0.000004 -61.800700 -61.720800 -108.716000 -24.328900 0.000322 -0.000009 -0.706471 -20.439800 -2.019270 -22.291500 -0.000108 -0.000004 34.643000 5.426720 -3.826870 -2.192480 -6.469440 -0.000000 -169.339000 -11.350500 -0.522312 39.081100 -0.000007 -0.000012 -0.017775 0.069096 14.425900 40.985400 -0.000006 -0.000013 -2.097990 19.952300 -68.009100 11.754300 -0.000000 0.000003 -0.001736 0.192994 -8.747150 -2.192510 6.469440 -0.000001 179.514000 5.934170 -178.846000 -39.081100 -0.002282 -0.040193 0.000121 0.017546 10.389100 -40.985400 0.000008 0.000006 -6.271630 11.255900 -64.832400 -11.754300 -0.000006 -0.000006 -0.008216 0.257454 -6.117130
0.000000 0.000000 0.000000 0.000000 0.000000 -0.000000 -3.178170 93.273600 -1.140750 86.561200 0.115800 1.449820 15.735700 0.000005 -0.000001 77.215700 87.590800 -81.415700 8.984550 -0.406207 -0.000000 -3.077840 -0.668790 -8.419240 16.377300 -0.000001 -0.000001 0.990635 1.139210 -8.156020 6.456720 -0.000001 -0.000000 -13.586200 7.413390 -16.335100 12.994200 -0.242716 4.980390 -93.202000 9.163510 -70.644300 5.348090 -0.000007 -0.000001 -60.608600 0.312747 2.145810 24.328600 0.000019 0.000005 14.214700 29.737500 -27.052400 22.291600 -0.000001 0.000005 2.470060 4.918100 9.014920 12.994500 -0.242716 -4.980390 93.603200 -6.614750 -61.336300 -5.348130 -0.000001 -0.000004 -61.795200 -61.566500 -108.611000 -24.328900 0.000322 -0.000009 -0.728215 -20.510000 -2.074750 -22.291500 -0.000108 -0.000004 34.649700 5.427280 -3.846000 -2.192480 -6.469440 -0.000000 -169.393000 -11.352500 -0.462147 39.081100 -0.000007 -0.000012 -0.017976 0.069475 14.506500 40.985400 -0.000006 -0.000013 -2.034880 19.926200 -67.956600 11.754300 -0.000000 0.000003 -0.001500 0.189901 -8.872920 -2.192510 6.469440 -0.000001 179.458000 5.854510 -178.769000 -39.081100 -0.002282 -0.040193 0.000443 0.015692 10.454800 -40.985400 0.000008 0.000006 -6.176210 11.154500 -64.919400 -11.754300 -0.000006 -0.000006 -0.008590 0.260448 -5.994820
0.000000 0.000000 0.000000 0.000000 0.000000 -0.000000 -3.120210 93.271100 -1.141960 86.581400 0.100753 1.502900 15.735700 0.000005 -0.000001 77.081900 87.583500 -81.268500 8.984550 -0.406207 -0.000000 -3.066630 -0.684713 -8.392630 16.377300 -0.000001 -0.000001 1.080250 0.986666 -8.123640 6.456720 -0.000001 -0.000000 -13.542000 7.150700 -16.367300 12.994200 -0.242716 4.980390 -93.219700 9.204910 -70.625200 5.348090 -0.000007 -0.000001 -60.582900 -0.021263 2.464000 24.328600 0.000019 0.000005 14.035000 29.780400 -26.716000 22.291600 -0.000001 0.000005 2.521300 4.914990 9.077400 12.994500 -0.242716 -4.980390 93.589100 -6.578000 -61.297700 -5.348130 -0.000001 -0.000004 -61.671300 -61.458200 -108.441000 -24.328900 0.000322 -0.000009 -0.716195 -20.566500 -2.035110 -22.291500 -0.000108 -0.000004 34.441200 5.423440 -3.714950 -2.192480 -6.469440 -0.000000 -169.458000 -11.256500 -0.429431 39.081100 -0.000007 -0.000012 -0.017732 0.068274 14.558400 40.985400 -0.000006 -0.000013 -1.989010 19.819800 -67.976800 11.754300 -0.000000 0.000003 -0.001469 0.189485 -8.889820 -2.192510 6.469440 -0.000001 179.393000 5.775890 -178.716000 -39.081100 -0.002282 -0.040193 0.000416 0.015814 10.469400 -40.985400 0.000008 0.000006 -6.219300 11.121400 -64.957100 -11.754300 -0.000006 -0.000006 -0.008684 0.261191 -5.964470
0.000000 0.000000 0.000000 0.000000 0.000000 -0.000000 -3.068830 93.268900 -1.142610 86.574100 0.122014 1.545300 15.735700 0.000005 -0.000001 76.950200 87.573200 -81.112800 8.984550 -0.406207 -0.000000 -3.049740 -0.703054 -8.345050 16.377300 -0.000001 -0.000001 1.250510 0.821058 -8.108370 6.456720 -0.000001 -0.000000 -13.549900 6.892290 -16.343100 12.994200 -0.242716 4.980390 -93.225900 9.205190 -70.591400 5.348090 -0.000007 -0.000001 -60.636100 -0.217033 2.746630 24.328600 0.000019 0.000005 13.980400 29.950700 -26.504100 22.291600 -0.000001 0.000005 2.557170 4.912380 9.130140 12.994500 -0.242716 -4.980390 93.576100 -6.544030 -61.260600 -5.348130 -0.000001 -0.000004 -61.666700 -61.390200 -108.340000 -24.328900 0.000322 -0.000009 -0.730805 -20.574400 -2.075890 -22.291500 -0.000108 -0.000004 34.329200 5.420010 -3.599620 -2.192480 -6.469440 -0.000000 -169.460000 -11.297700 -0.429858 39.081100 -0.000007 -0.000012 -0.018323 0.070236 14.621000 40.985400 -0.000006 -0.000013 -1.937000 19.921700 -67.965300 11.754300 -0.000000 0.000003 -0.001530 0.190299 -8.856740 -2.192510 6.469440 -0.000001 179.365000 5.641160 -178.685000 -39.081100 -0.002282 -0.040193 -0.000040 0.018280 10.470100 -40.985400 0.000008 0.000006 -6.423810 11.000800 -64.879700 -11.754300 -0.000006 -0.000006 -0.008403 0.258960 -6.055620
0.000000 0.000000 0.000000 0.000000 0.000000 -0.000000 -3.023060 93.272300 -1.150650 86.609400 0.162271 1.572850 15.735700 0.000005 -0.000001 76.798700 87.555500 -80.949600 8.984550 -0.406207 -0.000000 -3.019140 -0.725831 -8.322000 16.377300 -0.000001 -0.000001 1.345410 0.674341 -7.967780 6.456720 -0.000001 -0.000000 -13.511100 6.740050 -16.351400 12.994200 -0.242716 4.980390 -93.239900 9.225550 -70.552400 5.348090 -0.000007 -0.000001 -60.684500 -0.282875 3.045990 24.328600 0.000019 0.000005 13.952000 29.841600 -26.531500 22.291600 -0.000001 0.000005 2.398130 4.916100 9.055150 12.994500 -0.242716 -4.980390 93.563300 -6.498650 -61.180300 -5.348130 -0.000001 -0.000004 -61.782700 -61.319500 -108.363000 -24.328900 0.000322 -0.000009 -0.752664 -20.573100 -2.138150 -22.291500 -0.000108 -0.000004 34.311000 5.418310 -3.542560 -2.192480 -6.469440 -0.000000 -169.541000 -11.245900 -0.414647 39.081100 -0.000007 -0.000012 -0.017378 0.066606 14.622700 40.985400 -0.000006 -0.000013 -1.895950 19.888500 -67.984900 11.754300 -0.000000 0.000003 -0.001330 0.187617 -8.965780 -2.192510 6.469440 -0.000001 179.292000 5.632120 -178.639000 -39.081100 -0.002282 -0.040193 -0.000051 0.018395 10.440200 -40.985400 0.000008 0.000006 -6.473830 10.968100 -64.885500 -11.754300 -0.000006 -0.000006 -0.008364 0.258644 -6.068530
0.000000 0.000000 0.000000 0.000000 0.000000 -0.000000 -2.985900 93.261500 -1.162430 86.642300 0.228706 1.603650 15.735700 0.000005 -0.000001 76.716100 87.526900 -80.853500 8.984550 -0.406207 -0.000000 -2.965920 -0.749027 -8.295080 16.377300 -0.000001 -0.000001 1.418390 0.580205 -7.858670 6.456720 -0.000001 -0.000000 -13.468500 6.609510 -16.305400 12.994200 -0.242716 4.980390 -93.265100 9.278190 -70.514300 5.348090 -0.000007 -0.000001 -60.720900 -0.305946 3.270890 24.328600 0.000019 0.000005 13.933300 29.674600 -26.616400 22.291600 -0.000001 0.000005 2.282550 4.927100 8.832770 12.994500 -0.242716 -4.980390 93.537800 -6.438140 -61.129200 -5.348130 -0.000001 -0.000004 -61.702700 -61.396000 -108.260000 -24.328900 0.000322 -0.000009 -0.750700 -20.712600 -2.118760 -22.291500 -0.000108 -0.000004 34.408300 5.421470 -3.648660 -2.192480 -6.469440 -0.000000 -169.591000 -11.266000 -0.482453 39.081100 -0.000007 -0.000012 -0.018483 0.070192 14.752200 40.985400 -0.000006 -0.000013 -1.842860 19.950200 -67.982200 11.754300 -0.000000 0.000003 -0.001434 0.189022 -8.908630 -2.192510 6.469440 -0.000001 179.253000 5.614110 -178.690000 -39.081100 -0.002282 -0.040193 0.000594 0.014661 10.598600 -40.985400 0.000008 0.000006 -6.369820 10.873700 -64.977200 -11.754300 -0.000006 -0.000006 -0.008317 0.258271 -6.083760
0.000000 0.000000 0.000000 0.000000 0.000000 -0.000000 -2.959630 93.270500 -1.178570 86.666800 0.278328 1.600780 15.735700 0.000005 -0.000001 76.611100 87.501600 -80.734700 8.984550 -0.406207 -0.000000 -2.919500 -0.772555 -8.267610 16.377300 -0.000001 -0.000001 1.510950 0.508635 -7.754280 6.456720 -0.000001 -0.000000 -13.473000 6.482040 -16.175900 12.994200 -0.242716 4.980390 -93.281900 9.311240 -70.485200 5.348090 -0.000007 -0.000001 -60.794600 -0.323396 3.399610 24.328600 0.000019 0.000005 14.003500 29.654200 -26.750900 22.291600 -0.000001 0.000005 2.156960 4.932490 8.723240 12.994500 -0.242716 -4.980390 93.535400 -6.416600 -61.064800 -5.348130 -0.000001 -0.000004 -61.764000 -61.485700 -108.202000 -24.328900 0.000322 -0.000009 -0.771037 -20.667500 -2.180810 -22.291500 -0.000108 -0.000004 33.994700 5.418260 -3.540910 -2.192480 -6.469440 -0.000000 -169.632000 -11.201800 -0.462177 39.081100 -0.000007 -0.000012 -0.018609 0.071175 14.651900 40.985400 -0.000006 -0.000013 -1.848580 19.963900 -67.904400 11.754300 -0.000000 0.000003 -0.001210 0.185973 -9.032570 -2.192510 6.469440 -0.000001 179.213000 5.565390 -178.662000 -39.081100 -0.002282 -0.040193 0.000417 0.015733 10.518600 -40.985400 0.000008 0.000006 -6.479180 10.793400 -64.926200 -11.754300 -0.000006 -0.000006 -0.008251 0.257734 -6.105680
